PathFileType	4	(X/Y/Z)	/Users/itak/Documents/Research/Walk-IL/dataset/trc/00166_00008.trc
DataRate	CameraRate	NumFrames	NumMarkers	Units	OrigDataRate	OrigDataStartFrame	OrigNumFrames
100.000000	100.000000	4	53	mm	100.000000	239	639
Frame#	Time	RPSI			LPSI			L3			STRN			T10			C7			CLAV			RBAK			LBAK			LSHO			LUPA			LAEL			LAOL			LWTS			LWPS			LFRA			LIFD			LHPS			LHTS			RSHO			RUPA			RAEL			RAOL			RWTS			RWPS			RFRA			RIFD			RHTS			RHPS			RBHD			LFHD			RFHD			LBHD			LHIP			RHIP			RASI			LASI			LKNE			LTHI			LANK			LTIP			LTOE			LMT1			LMT5			LHEE			RKNE			RTHI			RANK			RTIP			RTOE			RMT1			RMT5			RHEE			
		X1	Y1	Z1	X2	Y2	Z2	X3	Y3	Z3	X4	Y4	Z4	X5	Y5	Z5	X6	Y6	Z6	X7	Y7	Z7	X8	Y8	Z8	X9	Y9	Z9	X10	Y10	Z10	X11	Y11	Z11	X12	Y12	Z12	X13	Y13	Z13	X14	Y14	Z14	X15	Y15	Z15	X16	Y16	Z16	X17	Y17	Z17	X18	Y18	Z18	X19	Y19	Z19	X20	Y20	Z20	X21	Y21	Z21	X22	Y22	Z22	X23	Y23	Z23	X24	Y24	Z24	X25	Y25	Z25	X26	Y26	Z26	X27	Y27	Z27	X28	Y28	Z28	X29	Y29	Z29	X30	Y30	Z30	X31	Y31	Z31	X32	Y32	Z32	X33	Y33	Z33	X34	Y34	Z34	X35	Y35	Z35	X36	Y36	Z36	X37	Y37	Z37	X38	Y38	Z38	X39	Y39	Z39	X40	Y40	Z40	X41	Y41	Z41	X42	Y42	Z42	X43	Y43	Z43	X44	Y44	Z44	X45	Y45	Z45	X46	Y46	Z46	X47	Y47	Z47	X48	Y48	Z48	X49	Y49	Z49	X50	Y50	Z50	X51	Y51	Z51	X52	Y52	Z52	X53	Y53	Z53	

240	2.39	-1725.355102539062	1032.187622070312	61.41988372802734	-1727.83349609375	1034.715087890625	-61.64809417724609	-1722.614379882812	1073.295776367188	6.099386215209961	-1440.561889648438	1263.473022460938	-8.162806510925293	-1741.360229492188	1234.956787109375	8.755962371826172	-1653.6396484375	1497.37744140625	-10.37357044219971	-1459.32080078125	1379.97705078125	-19.37214088439941	-1727.503173828125	1330.553955078125	105.9104843139648	-1669.122924804688	1470.5419921875	-110.8217391967773	-1599.984741210938	1449.570678710938	-194.5893402099609	-1650.831298828125	1317.93310546875	-260.7664489746094	-1661.724487304688	1101.718627929688	-270.7391662597656	-1693.096923828125	1091.033813476562	-188.3956604003906	-1572.724609375	859.260986328125	-261.9240417480469	-1663.968627929688	848.14306640625	-283.0950927734375	-1663.779174804688	990.859130859375	-285.1150207519531	-1576.125610351562	675.0415649414062	-236.7158660888672	-1649.91796875	775.91064453125	-282.3913879394531	-1576.734252929688	779.5087280273438	-282.3389282226562	-1580.850463867188	1475.748901367188	165.2434387207031	-1600.146118164062	1412.804809570312	238.6181640625	-1623.24609375	1128.063232421875	305.7341613769531	-1637.578491210938	1115.90576171875	209.0939636230469	-1499.283081054688	891.8372802734375	293.6753234863281	-1571.217895507812	884.5733642578125	347.8987731933594	-1600.656005859375	1056.544189453125	326.781982421875	-1499.915161132812	700.8200073242188	285.5454711914062	-1479.574340820312	796.2400512695312	306.9684448242188	-1548.464477539062	798.9679565429688	348.7363891601562	-1615.693725585938	1645.498291015625	51.49437713623047	-1468.9521484375	1706.622314453125	-98.39119720458984	-1455.787231445312	1714.879760742188	30.39111137390137	-1635.78515625	1642.916259765625	-84.76659393310547	-1628.973876953125	974.7254638671875	-185.7007141113281	-1574.504760742188	977.1127319335938	184.6050567626953	-1492.321533203125	1003.900512695312	132.3243408203125	-1501.088623046875	1009.577941894531	-124.4092712402344	-1400.12744140625	511.458251953125	-158.7902069091797	-1465.04345703125	639.879150390625	-192.1856384277344	-1296.883422851562	43.17212295532227	-151.1805419921875	-1354.071533203125	286.2952270507812	-171.6512603759766	-1101.519409179688	133.9615325927734	-151.9086456298828	-1139.92041015625	117.0241775512695	-99.75791168212891	-1196.765502929688	67.77315521240234	-198.6597290039062	-1337.921020507812	36.78804016113281	-75.90570068359375	-1652.198486328125	485.757080078125	127.7979888916016	-1553.043334960938	740.9081420898438	173.8818969726562	-1872.397216796875	40.62560653686523	93.59221649169922	-1674.092895507812	365.0784301757812	103.1866149902344	-1649.630981445312	38.62620162963867	69.67612457275391	-1701.4111328125	37.41134643554688	23.04357528686523	-1762.550170898438	31.04207038879395	136.2186889648438	-1920.657470703125	50.38283157348633	23.90235328674316	
241	2.4	-1718.27587890625	1031.487182617188	59.91425704956055	-1720.333984375	1033.831665039062	-63.14154434204102	-1715.197387695312	1072.27685546875	4.483861446380615	-1433.564575195312	1262.830078125	-9.059633255004883	-1734.208618164062	1233.855834960938	7.290243148803711	-1646.9462890625	1496.523681640625	-11.89882755279541	-1452.392822265625	1379.301513671875	-20.46174812316895	-1720.783569335938	1329.683837890625	104.4519500732422	-1662.235595703125	1469.540405273438	-112.3174896240234	-1592.970336914062	1448.48974609375	-195.9893493652344	-1643.76806640625	1316.712280273438	-261.9915771484375	-1654.979736328125	1100.652221679688	-271.8284301757812	-1686.24951171875	1090.0126953125	-189.4456939697266	-1566.759643554688	857.923583984375	-263.2154846191406	-1658.105590820312	847.1834716796875	-284.2049560546875	-1657.365844726562	989.838623046875	-286.2067565917969	-1571.040283203125	673.6681518554688	-238.0600280761719	-1644.28076171875	774.8873291015625	-283.5465087890625	-1571.060546875	778.2109985351562	-283.6213989257812	-1574.438354492188	1475.092529296875	163.8867645263672	-1593.752807617188	1412.109619140625	237.2906951904297	-1616.363891601562	1127.229858398438	304.3402404785156	-1630.628540039062	1115.11328125	207.6946716308594	-1491.8330078125	891.337646484375	292.0335693359375	-1563.742065429688	883.8081665039062	346.2249145507812	-1593.659301757812	1055.722412109375	325.3244934082031	-1491.809326171875	700.3638916015625	283.6889343261719	-1471.874877929688	795.8016967773438	305.2291870117188	-1540.74462890625	798.2711791992188	346.9901428222656	-1609.50390625	1644.639404296875	49.83591461181641	-1462.490112304688	1706.046508789062	-99.63459777832031	-1449.7421875	1714.403442382812	29.19589233398438	-1629.213745117188	1641.95849609375	-86.47956085205078	-1620.235473632812	973.9822387695312	-187.041015625	-1567.763793945312	976.5011596679688	183.6829681396484	-1485.544311523438	1003.012573242188	131.6645660400391	-1493.254272460938	1008.71240234375	-125.1190795898438	-1393.028686523438	510.260009765625	-158.6467132568359	-1457.418090820312	638.7896728515625	-192.3490753173828	-1292.430786132812	41.46917724609375	-150.1245422363281	-1348.123413085938	284.6796569824219	-170.9340209960938	-1096.477783203125	130.9712524414062	-149.6741943359375	-1135.250732421875	114.2483139038086	-97.76298522949219	-1191.934448242188	65.45082855224609	-197.0181884765625	-1333.916870117188	35.36104965209961	-75.02409362792969	-1647.904296875	485.5557861328125	127.6771240234375	-1547.50927734375	740.3135375976562	173.3521423339844	-1872.07568359375	42.05754470825195	94.09285736083984	-1670.715942382812	364.9235229492188	103.215690612793	-1649.662719726562	38.58015823364258	69.68583679199219	-1701.472534179688	37.54717636108398	23.22173690795898	-1762.515625	30.90166282653809	136.3717346191406	-1920.536010742188	52.8563117980957	24.59584426879883	
242	2.41	-1711.020751953125	1030.912353515625	58.230712890625	-1712.550537109375	1033.052978515625	-64.81414031982422	-1707.567016601562	1071.3671875	2.696883201599121	-1426.402587890625	1262.350341796875	-10.02176475524902	-1726.860717773438	1232.80419921875	5.629976272583008	-1640.147705078125	1495.776123046875	-13.56721115112305	-1445.3369140625	1378.781005859375	-21.63116073608398	-1713.964233398438	1328.897216796875	102.8134536743164	-1655.214233398438	1468.641845703125	-113.9538421630859	-1585.7861328125	1447.521118164062	-197.5192565917969	-1636.545288085938	1315.614868164062	-263.3401794433594	-1648.047485351562	1099.671875	-272.9974975585938	-1679.18994140625	1089.089721679688	-190.5645141601562	-1560.571411132812	856.6917724609375	-264.5315246582031	-1652.015014648438	846.2979736328125	-285.3292846679688	-1650.747314453125	988.9017333984375	-287.348388671875	-1565.663330078125	672.4010009765625	-239.4063415527344	-1638.4130859375	773.9525756835938	-284.707275390625	-1565.156005859375	777.01171875	-284.9188842773438	-1567.979614257812	1474.559814453125	162.4120483398438	-1587.335571289062	1411.525024414062	235.83740234375	-1609.415283203125	1126.501098632812	302.8157043457031	-1623.5791015625	1114.431030273438	206.15478515625	-1484.255493164062	890.9697875976562	290.2471923828125	-1556.155639648438	883.1563110351562	344.4097595214844	-1586.593139648438	1055.005859375	323.7374572753906	-1483.57080078125	700.0393676757812	281.6697387695312	-1464.0361328125	795.4891967773438	303.3369445800781	-1532.88671875	797.6909790039062	345.0897827148438	-1603.229125976562	1643.902587890625	48.08901596069336	-1455.934326171875	1705.614868164062	-100.945915222168	-1443.620361328125	1714.06103515625	27.9278507232666	-1622.543579101562	1641.132202148438	-88.28998565673828	-1611.278076171875	973.3224487304688	-188.4657592773438	-1560.902465820312	976.0307006835938	182.6677856445312	-1478.5576171875	1002.278747558594	130.957763671875	-1485.078369140625	1007.961608886719	-125.8717193603516	-1385.84033203125	509.0691223144531	-158.4978485107422	-1449.566772460938	637.7413940429688	-192.4950714111328	-1288.868774414062	39.76132583618164	-149.2591705322266	-1342.43896484375	283.005615234375	-170.2541961669922	-1092.043823242188	127.3187866210938	-147.4928894042969	-1131.238037109375	110.8459014892578	-95.83716583251953	-1187.957885742188	62.91112518310547	-195.521728515625	-1330.828857421875	33.95412445068359	-74.33583831787109	-1643.4228515625	485.4885559082031	127.5533294677734	-1541.857299804688	739.8642578125	172.8098449707031	-1871.70654296875	43.70672988891602	94.60028839111328	-1667.18798828125	364.9024658203125	103.2659683227539	-1649.65576171875	38.52485656738281	69.71771240234375	-1701.469848632812	37.69818496704102	23.43213653564453	-1762.434204101562	30.79633522033691	136.4879150390625	-1920.313232421875	55.60128784179688	25.26620864868164	
243	2.42	-1703.583374023438	1030.470947265625	56.37596893310547	-1704.474975585938	1032.402465820312	-66.66111755371094	-1699.738159179688	1070.602661132812	0.757010281085968	-1419.07080078125	1262.057373046875	-11.05033779144287	-1719.329345703125	1231.830810546875	3.767516136169434	-1633.246948242188	1495.150512695312	-15.38344573974609	-1438.152221679688	1378.435913085938	-22.88332939147949	-1707.052001953125	1328.212524414062	100.9833068847656	-1648.059326171875	1467.862182617188	-115.7395248413086	-1578.430053710938	1446.687622070312	-199.1829681396484	-1629.145751953125	1314.652099609375	-264.8221130371094	-1640.913208007812	1098.798950195312	-274.2504577636719	-1671.913696289062	1088.289184570312	-191.758544921875	-1554.155517578125	855.5778198242188	-265.8666076660156	-1645.686767578125	845.5056762695312	-286.4677429199219	-1643.915161132812	988.0697631835938	-288.5440979003906	-1559.976196289062	671.2640380859375	-240.741943359375	-1632.308227539062	773.12451171875	-285.86962890625	-1559.016479492188	775.9286499023438	-286.2224731445312	-1561.480102539062	1474.16943359375	160.8135223388672	-1580.903564453125	1411.072509765625	234.2469787597656	-1602.407470703125	1125.8994140625	301.1503601074219	-1616.4326171875	1113.883422851562	204.4608917236328	-1476.554931640625	890.7560424804688	288.3222351074219	-1548.464233398438	882.6422119140625	342.4539184570312	-1579.460815429688	1054.419555664062	322.0120849609375	-1475.217651367188	699.8663940429688	279.5001525878906	-1456.06298828125	795.3231201171875	301.2997741699219	-1524.899047851562	797.2567749023438	343.0421142578125	-1596.876708984375	1643.303833007812	46.24928283691406	-1449.286499023438	1705.349243164062	-102.3224258422852	-1437.423095703125	1713.866088867188	26.59062385559082	-1615.777465820312	1640.461059570312	-90.20291900634766	-1602.140869140625	972.7665405273438	-189.9517669677734	-1553.924072265625	975.6986083984375	181.5635375976562	-1471.356811523438	1001.728881835938	130.2116241455078	-1476.58203125	1007.344543457031	-126.64892578125	-1378.606811523438	507.90087890625	-158.3372497558594	-1441.52197265625	636.750244140625	-192.6256408691406	-1286.08544921875	38.1446418762207	-148.5826568603516	-1336.989379882812	281.3312072753906	-169.6082916259766	-1088.098266601562	123.0362091064453	-145.4142303466797	-1127.763916015625	106.8820648193359	-94.01612854003906	-1184.720092773438	60.19613647460938	-194.1709747314453	-1328.533325195312	32.69748306274414	-73.82283020019531	-1638.726684570312	485.5598449707031	127.4201736450195	-1536.068725585938	739.5621948242188	172.2479248046875	-1871.274658203125	45.57708358764648	95.09703826904297	-1663.485107421875	365.0159301757812	103.3342514038086	-1649.614501953125	38.46482467651367	69.766845703125	-1701.389526367188	37.86297607421875	23.66823196411133	-1762.301635742188	30.73666381835938	136.5631866455078	-1919.97607421875	58.63825988769531	25.89290428161621	
